<svg width="21" height="20" viewBox="0 0 21 20" fill="none" xmlns="http://www.w3.org/2000/svg">
<path d="M9.94428 3.88897V2.2223C9.94428 2.07496 10.0028 1.93365 10.107 1.82947C10.2112 1.72528 10.3525 1.66675 10.4998 1.66675C10.6472 1.66675 10.7885 1.72528 10.8927 1.82947C10.9969 1.93365 11.0554 2.07496 11.0554 2.2223V3.88897C11.0554 4.03631 10.9969 4.17762 10.8927 4.28181C10.7885 4.38599 10.6472 4.44453 10.4998 4.44453C10.3525 4.44453 10.2112 4.38599 10.107 4.28181C10.0028 4.17762 9.94428 4.03631 9.94428 3.88897ZM14.9443 10.0001C14.9443 10.8791 14.6836 11.7384 14.1953 12.4693C13.7069 13.2002 13.0128 13.7698 12.2007 14.1062C11.3885 14.4426 10.4949 14.5306 9.63277 14.3591C8.77063 14.1876 7.97871 13.7643 7.35714 13.1428C6.73557 12.5212 6.31228 11.7293 6.14079 10.8671C5.9693 10.005 6.05732 9.11138 6.39371 8.29927C6.7301 7.48715 7.29975 6.79302 8.03064 6.30466C8.76152 5.8163 9.62081 5.55564 10.4998 5.55564C11.6782 5.55692 12.8079 6.02559 13.6411 6.85881C14.4743 7.69202 14.943 8.82174 14.9443 10.0001ZM13.8332 10.0001C13.8332 9.34081 13.6377 8.69634 13.2714 8.14818C12.9051 7.60002 12.3845 7.17278 11.7754 6.92048C11.1664 6.66819 10.4961 6.60218 9.84954 6.7308C9.20293 6.85942 8.60899 7.17688 8.14282 7.64306C7.67664 8.10923 7.35917 8.70318 7.23055 9.34978C7.10194 9.99638 7.16795 10.6666 7.42024 11.2757C7.67253 11.8848 8.09977 12.4054 8.64794 12.7716C9.1961 13.1379 9.84057 13.3334 10.4998 13.3334C11.3836 13.3325 12.2309 12.981 12.8558 12.3561C13.4808 11.7312 13.8323 10.8839 13.8332 10.0001ZM5.66234 5.94869C5.76658 6.05294 5.90797 6.1115 6.05539 6.1115C6.20282 6.1115 6.3442 6.05294 6.44845 5.94869C6.55269 5.84445 6.61126 5.70306 6.61126 5.55564C6.61126 5.40821 6.55269 5.26683 6.44845 5.16258L5.33734 4.05147C5.23309 3.94723 5.09171 3.88866 4.94428 3.88866C4.79686 3.88866 4.65547 3.94723 4.55123 4.05147C4.44698 4.15572 4.38842 4.2971 4.38842 4.44453C4.38842 4.59195 4.44698 4.73334 4.55123 4.83758L5.66234 5.94869ZM5.66234 14.0515L4.55123 15.1626C4.44698 15.2668 4.38842 15.4082 4.38842 15.5556C4.38842 15.7031 4.44698 15.8444 4.55123 15.9487C4.65547 16.0529 4.79686 16.1115 4.94428 16.1115C5.09171 16.1115 5.23309 16.0529 5.33734 15.9487L6.44845 14.8376C6.50007 14.786 6.54101 14.7247 6.56894 14.6572C6.59688 14.5898 6.61126 14.5175 6.61126 14.4445C6.61126 14.3715 6.59688 14.2992 6.56894 14.2318C6.54101 14.1644 6.50007 14.1031 6.44845 14.0515C6.39683 13.9999 6.33555 13.9589 6.26811 13.931C6.20067 13.903 6.12839 13.8887 6.05539 13.8887C5.9824 13.8887 5.91011 13.903 5.84267 13.931C5.77523 13.9589 5.71395 13.9999 5.66234 14.0515ZM14.9443 6.11119C15.0173 6.11125 15.0895 6.09693 15.157 6.06905C15.2244 6.04116 15.2857 6.00027 15.3373 5.94869L16.4484 4.83758C16.5527 4.73334 16.6113 4.59195 16.6113 4.44453C16.6113 4.2971 16.5527 4.15572 16.4484 4.05147C16.3442 3.94723 16.2028 3.88866 16.0554 3.88866C15.908 3.88866 15.7666 3.94723 15.6623 4.05147L14.5512 5.16258C14.4734 5.24028 14.4205 5.33931 14.399 5.44713C14.3775 5.55496 14.3885 5.66673 14.4306 5.7683C14.4727 5.86987 14.544 5.95666 14.6354 6.0177C14.7268 6.07874 14.8343 6.11128 14.9443 6.11119ZM15.3373 14.0515C15.2331 13.9472 15.0917 13.8887 14.9443 13.8887C14.7969 13.8887 14.6555 13.9472 14.5512 14.0515C14.447 14.1557 14.3884 14.2971 14.3884 14.4445C14.3884 14.592 14.447 14.7333 14.5512 14.8376L15.6623 15.9487C15.714 16.0003 15.7752 16.0413 15.8427 16.0692C15.9101 16.0971 15.9824 16.1115 16.0554 16.1115C16.1284 16.1115 16.2007 16.0971 16.2681 16.0692C16.3356 16.0413 16.3968 16.0003 16.4484 15.9487C16.5001 15.8971 16.541 15.8358 16.5689 15.7684C16.5969 15.7009 16.6113 15.6286 16.6113 15.5556C16.6113 15.4826 16.5969 15.4104 16.5689 15.3429C16.541 15.2755 16.5001 15.2142 16.4484 15.1626L15.3373 14.0515ZM4.94428 10.0001C4.94428 9.85274 4.88575 9.71143 4.78156 9.60724C4.67738 9.50306 4.53607 9.44453 4.38873 9.44453H2.72206C2.57472 9.44453 2.43341 9.50306 2.32922 9.60724C2.22504 9.71143 2.1665 9.85274 2.1665 10.0001C2.1665 10.1474 2.22504 10.2887 2.32922 10.3929C2.43341 10.4971 2.57472 10.5556 2.72206 10.5556H4.38873C4.53607 10.5556 4.67738 10.4971 4.78156 10.3929C4.88575 10.2887 4.94428 10.1474 4.94428 10.0001ZM10.4998 15.5556C10.3525 15.5556 10.2112 15.6142 10.107 15.7184C10.0028 15.8225 9.94428 15.9639 9.94428 16.1112V17.7779C9.94428 17.9252 10.0028 18.0665 10.107 18.1707C10.2112 18.2749 10.3525 18.3334 10.4998 18.3334C10.6472 18.3334 10.7885 18.2749 10.8927 18.1707C10.9969 18.0665 11.0554 17.9252 11.0554 17.7779V16.1112C11.0554 15.9639 10.9969 15.8225 10.8927 15.7184C10.7885 15.6142 10.6472 15.5556 10.4998 15.5556ZM18.2776 9.44453H16.6109C16.4636 9.44453 16.3223 9.50306 16.2181 9.60724C16.1139 9.71143 16.0554 9.85274 16.0554 10.0001C16.0554 10.1474 16.1139 10.2887 16.2181 10.3929C16.3223 10.4971 16.4636 10.5556 16.6109 10.5556H18.2776C18.425 10.5556 18.5663 10.4971 18.6705 10.3929C18.7746 10.2887 18.8332 10.1474 18.8332 10.0001C18.8332 9.85274 18.7746 9.71143 18.6705 9.60724C18.5663 9.50306 18.425 9.44453 18.2776 9.44453Z" fill="black"/>
</svg>
