<svg width="24" height="24" viewBox="0 0 24 24" fill="none" xmlns="http://www.w3.org/2000/svg">
<rect x="0.5" y="0.5" width="23" height="23" rx="11.5" stroke="#FF8818"/>
<path d="M18.3535 8.85375L10.3535 16.8538C10.3071 16.9002 10.252 16.9371 10.1913 16.9623C10.1306 16.9874 10.0655 17.0004 9.99979 17.0004C9.93408 17.0004 9.86902 16.9874 9.80832 16.9623C9.74762 16.9371 9.69248 16.9002 9.64604 16.8538L6.14604 13.3538C6.05222 13.2599 5.99951 13.1327 5.99951 13C5.99951 12.8673 6.05222 12.7401 6.14604 12.6463C6.23986 12.5524 6.36711 12.4997 6.49979 12.4997C6.63247 12.4997 6.75972 12.5524 6.85354 12.6463L9.99979 15.7931L17.646 8.14625C17.7399 8.05243 17.8671 7.99973 17.9998 7.99973C18.1325 7.99973 18.2597 8.05243 18.3535 8.14625C18.4474 8.24007 18.5001 8.36732 18.5001 8.5C18.5001 8.63269 18.4474 8.75993 18.3535 8.85375Z" fill="#FF8818"/>
</svg>
