<svg width="512" height="512" viewBox="0 0 512 512" fill="none" xmlns="http://www.w3.org/2000/svg">
<rect width="512" height="512" fill="#FF8818"/>
<path d="M171.006 251.397L171.006 251.396C167.522 247.912 162.797 245.955 157.87 245.955C152.943 245.955 148.218 247.912 144.734 251.396C141.25 254.88 139.293 259.605 139.293 264.532C139.293 269.459 141.25 274.184 144.734 277.668L204.461 337.394C204.462 337.396 204.463 337.397 204.465 337.398C206.189 339.123 208.235 340.492 210.488 341.426L214.333 332.152L210.488 341.426C212.743 342.36 215.16 342.841 217.6 342.841C220.041 342.841 222.458 342.36 224.712 341.426C226.965 340.492 229.012 339.123 230.736 337.398C230.738 337.397 230.739 337.396 230.74 337.394L367.264 200.871C370.747 197.387 372.705 192.662 372.705 187.735C372.705 182.808 370.747 178.083 367.264 174.599L360.165 181.698L367.264 174.599C363.78 171.115 359.055 169.158 354.128 169.158C349.201 169.158 344.476 171.115 340.992 174.599L340.992 174.6L217.601 298L171.006 251.397Z" fill="white" stroke="white" stroke-width="20.0784"/>
</svg>
