<svg width="21" height="20" viewBox="0 0 21 20" fill="none" xmlns="http://www.w3.org/2000/svg">
<path d="M18.2776 12.2224H15.4686C15.4891 12.0379 15.4995 11.8524 15.4998 11.6668C15.4998 10.3407 14.9731 9.06895 14.0354 8.13127C13.0977 7.19359 11.8259 6.66681 10.4998 6.66681C9.17376 6.66681 7.90199 7.19359 6.9643 8.13127C6.02662 9.06895 5.49984 10.3407 5.49984 11.6668C5.50015 11.8524 5.51058 12.0379 5.53109 12.2224H2.72206C2.57472 12.2224 2.43341 12.2809 2.32922 12.3851C2.22504 12.4893 2.1665 12.6306 2.1665 12.7779C2.1665 12.9253 2.22504 13.0666 2.32922 13.1708C2.43341 13.2749 2.57472 13.3335 2.72206 13.3335H18.2776C18.425 13.3335 18.5663 13.2749 18.6705 13.1708C18.7746 13.0666 18.8332 12.9253 18.8332 12.7779C18.8332 12.6306 18.7746 12.4893 18.6705 12.3851C18.5663 12.2809 18.425 12.2224 18.2776 12.2224ZM6.61095 11.6668C6.60993 11.132 6.71922 10.6028 6.93199 10.1121C7.14477 9.62149 7.45645 9.18001 7.84756 8.81528C8.23867 8.45055 8.70081 8.17041 9.20509 7.99236C9.70937 7.81431 10.2449 7.74218 10.7784 7.78049C11.3118 7.81879 11.8316 7.9667 12.3052 8.21497C12.7789 8.46324 13.1963 8.80654 13.5312 9.22341C13.8662 9.64028 14.1116 10.1218 14.2521 10.6378C14.3926 11.1538 14.4252 11.6932 14.3478 12.2224H6.65192C6.62503 12.0384 6.61134 11.8527 6.61095 11.6668ZM16.6109 15.5557C16.6109 15.703 16.5524 15.8443 16.4482 15.9485C16.344 16.0527 16.2027 16.1112 16.0554 16.1112H4.94428C4.79694 16.1112 4.65563 16.0527 4.55144 15.9485C4.44726 15.8443 4.38873 15.703 4.38873 15.5557C4.38873 15.4083 4.44726 15.267 4.55144 15.1629C4.65563 15.0587 4.79694 15.0001 4.94428 15.0001H16.0554C16.2027 15.0001 16.344 15.0587 16.4482 15.1629C16.5524 15.267 16.6109 15.4083 16.6109 15.5557ZM6.66928 4.69319C6.60335 4.56132 6.5925 4.40866 6.63912 4.26879C6.68574 4.12892 6.78602 4.0133 6.91789 3.94736C7.04976 3.88143 7.20243 3.87058 7.3423 3.9172C7.48217 3.96382 7.59779 4.0641 7.66373 4.19597L8.21928 5.30708C8.25193 5.37238 8.2714 5.44347 8.27657 5.51629C8.28175 5.58911 8.27253 5.66223 8.24944 5.73149C8.22636 5.80075 8.18986 5.86478 8.14202 5.91993C8.09419 5.97508 8.03597 6.02027 7.97067 6.05292C7.90538 6.08556 7.83429 6.10503 7.76147 6.11021C7.68865 6.11538 7.61552 6.10616 7.54627 6.08308C7.47701 6.05999 7.41298 6.02349 7.35783 5.97566C7.30267 5.92783 7.25749 5.8696 7.22484 5.80431L6.66928 4.69319ZM2.78039 8.08486C2.81307 8.01959 2.85828 7.9614 2.91345 7.91361C2.96863 7.86583 3.03267 7.82938 3.10194 7.80636C3.1712 7.78333 3.24432 7.77418 3.31713 7.77943C3.38993 7.78468 3.46098 7.80422 3.52623 7.83694L4.63734 8.3925C4.76912 8.45844 4.86931 8.57402 4.91586 8.71383C4.96242 8.85363 4.95154 9.00621 4.8856 9.13799C4.81967 9.26976 4.70408 9.36995 4.56428 9.41651C4.42447 9.46307 4.27189 9.45219 4.14012 9.38625L3.029 8.83069C2.96368 8.79808 2.90542 8.75291 2.85756 8.69777C2.8097 8.64262 2.77318 8.57858 2.75009 8.50931C2.727 8.44004 2.71779 8.3669 2.72299 8.29407C2.72819 8.22124 2.7477 8.15015 2.78039 8.08486ZM16.1137 9.13764C16.0479 9.00585 16.0371 8.85333 16.0838 8.71359C16.1304 8.57386 16.2306 8.45836 16.3623 8.3925L17.4734 7.83694C17.5387 7.8043 17.6097 7.78482 17.6825 7.77963C17.7553 7.77443 17.8284 7.78363 17.8976 7.80668C17.9668 7.82973 18.0308 7.8662 18.086 7.91399C18.1411 7.96178 18.1863 8.01996 18.2189 8.08521C18.2516 8.15046 18.2711 8.2215 18.2763 8.29428C18.2814 8.36706 18.2723 8.44014 18.2492 8.50937C18.2261 8.57859 18.1897 8.6426 18.1419 8.69773C18.0941 8.75287 18.0359 8.79805 17.9707 8.83069L16.8596 9.38625C16.7943 9.41895 16.7232 9.43845 16.6504 9.44365C16.5775 9.44885 16.5044 9.43964 16.4351 9.41655C16.3658 9.39346 16.3018 9.35694 16.2467 9.30908C16.1915 9.26123 16.1463 9.20297 16.1137 9.13764ZM12.7804 5.30708L13.3359 4.19597C13.4019 4.0641 13.5175 3.96382 13.6574 3.9172C13.7972 3.87058 13.9499 3.88143 14.0818 3.94736C14.2137 4.0133 14.3139 4.12892 14.3606 4.26879C14.4072 4.40866 14.3963 4.56132 14.3304 4.69319L13.7748 5.80431C13.7089 5.93618 13.5933 6.03645 13.4534 6.08308C13.3135 6.1297 13.1609 6.11885 13.029 6.05292C12.8971 5.98698 12.7969 5.87136 12.7502 5.73149C12.7036 5.59162 12.7145 5.43895 12.7804 5.30708Z" fill="black"/>
</svg>
