<svg width="21" height="20" viewBox="0 0 21 20" fill="none" xmlns="http://www.w3.org/2000/svg">
<path d="M18.8332 7.7577C18.8332 7.92776 18.7656 8.09087 18.6454 8.21112C18.5251 8.33138 18.362 8.39893 18.1919 8.39893H16.9095V9.68141C16.9095 9.85147 16.8419 10.0146 16.7217 10.1348C16.6014 10.2551 16.4383 10.3226 16.2682 10.3226C16.0982 10.3226 15.9351 10.2551 15.8148 10.1348C15.6945 10.0146 15.627 9.85147 15.627 9.68141V8.39893H14.3445C14.1745 8.39893 14.0114 8.33138 13.8911 8.21112C13.7708 8.09087 13.7033 7.92776 13.7033 7.7577C13.7033 7.58763 13.7708 7.42453 13.8911 7.30428C14.0114 7.18402 14.1745 7.11646 14.3445 7.11646H15.627V5.83399C15.627 5.66392 15.6945 5.50082 15.8148 5.38057C15.9351 5.26031 16.0982 5.19275 16.2682 5.19275C16.4383 5.19275 16.6014 5.26031 16.7217 5.38057C16.8419 5.50082 16.9095 5.66392 16.9095 5.83399V7.11646H18.1919C18.362 7.11646 18.5251 7.18402 18.6454 7.30428C18.7656 7.42453 18.8332 7.58763 18.8332 7.7577ZM11.1383 4.55152H11.7796V5.19275C11.7796 5.36282 11.8471 5.52592 11.9674 5.64618C12.0876 5.76643 12.2507 5.83399 12.4208 5.83399C12.5909 5.83399 12.754 5.76643 12.8742 5.64618C12.9945 5.52592 13.062 5.36282 13.062 5.19275V4.55152H13.7033C13.8734 4.55152 14.0365 4.48396 14.1567 4.3637C14.277 4.24345 14.3445 4.08035 14.3445 3.91028C14.3445 3.74021 14.277 3.57711 14.1567 3.45686C14.0365 3.3366 13.8734 3.26904 13.7033 3.26904H13.062V2.62781C13.062 2.45774 12.9945 2.29464 12.8742 2.17439C12.754 2.05413 12.5909 1.98657 12.4208 1.98657C12.2507 1.98657 12.0876 2.05413 11.9674 2.17439C11.8471 2.29464 11.7796 2.45774 11.7796 2.62781V3.26904H11.1383C10.9683 3.26904 10.8052 3.3366 10.6849 3.45686C10.5647 3.57711 10.4971 3.74021 10.4971 3.91028C10.4971 4.08035 10.5647 4.24345 10.6849 4.3637C10.8052 4.48396 10.9683 4.55152 11.1383 4.55152ZM16.9712 12.3265C17.0458 12.4134 17.0958 12.5187 17.116 12.6315C17.1361 12.7443 17.1257 12.8604 17.0858 12.9677C16.6409 14.1812 15.8974 15.263 14.9241 16.1134C13.9508 16.9638 12.779 17.5553 11.5168 17.8333C10.2546 18.1114 8.94265 18.067 7.70211 17.7044C6.46157 17.3417 5.33237 16.6724 4.41872 15.7582C3.50507 14.844 2.83641 13.7144 2.47444 12.4737C2.11247 11.233 2.06885 9.92103 2.34762 8.65899C2.62639 7.39694 3.21857 6.22545 4.06949 5.25262C4.92041 4.27979 6.00267 3.53697 7.21638 3.0927C7.32321 3.05358 7.43852 3.04358 7.55049 3.06373C7.66246 3.08389 7.76705 3.13347 7.85353 3.20738C7.94001 3.2813 8.00527 3.3769 8.04261 3.48436C8.07995 3.59182 8.08803 3.70729 8.06602 3.8189C7.8413 4.95627 7.90018 6.13148 8.23744 7.24069C8.5747 8.34991 9.17996 9.35898 9.99974 10.1788C10.8195 10.9986 11.8286 11.6038 12.9378 11.9411C14.047 12.2783 15.2222 12.3372 16.3596 12.1125C16.4714 12.0906 16.5869 12.099 16.6944 12.1366C16.8019 12.1742 16.8974 12.2397 16.9712 12.3265ZM15.417 13.5192C15.2735 13.5264 15.1292 13.5304 14.9858 13.5304C12.7753 13.5281 10.6561 12.6489 9.09328 11.0857C7.53042 9.52255 6.6516 7.40318 6.64969 5.19275C6.64969 5.04928 6.64969 4.905 6.66091 4.76152C5.80773 5.25248 5.07903 5.93326 4.53128 6.75113C3.98352 7.56901 3.63142 8.502 3.50223 9.47784C3.37305 10.4537 3.47026 11.4462 3.78634 12.3784C4.10242 13.3106 4.62887 14.1576 5.32491 14.8536C6.02095 15.5496 6.8679 16.0761 7.80012 16.3922C8.73235 16.7082 9.72483 16.8055 10.7007 16.6763C11.6765 16.5471 12.6095 16.195 13.4274 15.6472C14.2452 15.0995 14.926 14.3708 15.417 13.5176V13.5192Z" fill="black"/>
</svg>
