<svg width="28" height="28" viewBox="0 0 28 28" fill="none" xmlns="http://www.w3.org/2000/svg">
<path d="M24.3701 17.8889C24.3701 18.1181 24.2791 18.3379 24.117 18.5C23.955 18.662 23.7351 18.7531 23.5059 18.7531H14.864V24.8025C14.864 25.0317 14.7729 25.2515 14.6108 25.4136C14.4488 25.5756 14.229 25.6667 13.9998 25.6667C13.7706 25.6667 13.5508 25.5756 13.3887 25.4136C13.2266 25.2515 13.1356 25.0317 13.1356 24.8025V18.7531H4.49359C4.26439 18.7531 4.04458 18.662 3.88251 18.5C3.72044 18.3379 3.62939 18.1181 3.62939 17.8889C3.62939 17.6597 3.72044 17.4399 3.88251 17.2778C4.04458 17.1157 4.26439 17.0247 4.49359 17.0247H5.49714L7.78402 4.06174H7.08618C6.85699 4.06174 6.63717 3.97069 6.47511 3.80862C6.31304 3.64655 6.22199 3.42674 6.22199 3.19754C6.22199 2.96834 6.31304 2.74853 6.47511 2.58646C6.63717 2.42439 6.85699 2.33334 7.08618 2.33334H20.9133C21.1425 2.33334 21.3624 2.42439 21.5244 2.58646C21.6865 2.74853 21.7775 2.96834 21.7775 3.19754C21.7775 3.42674 21.6865 3.64655 21.5244 3.80862C21.3624 3.97069 21.1425 4.06174 20.9133 4.06174H20.2155L22.5024 17.0247H23.5059C23.7351 17.0247 23.955 17.1157 24.117 17.2778C24.2791 17.4399 24.3701 17.6597 24.3701 17.8889Z" fill="white"/>
</svg>
