<svg width="180" height="60" viewBox="0 0 180 60" fill="none" xmlns="http://www.w3.org/2000/svg">
<path d="M95.7075 12.2925C95.8005 12.3854 95.8742 12.4957 95.9246 12.6171C95.9749 12.7385 96.0008 12.8686 96.0008 13C96.0008 13.1314 95.9749 13.2615 95.9246 13.3829C95.8742 13.5043 95.8005 13.6146 95.7075 13.7075L88.7075 20.7075C88.6146 20.8005 88.5043 20.8742 88.3829 20.9246C88.2615 20.9749 88.1314 21.0008 88 21.0008C87.8686 21.0008 87.7385 20.9749 87.6171 20.9246C87.4957 20.8742 87.3854 20.8005 87.2925 20.7075L84.2925 17.7075C84.1049 17.5199 83.9994 17.2654 83.9994 17C83.9994 16.7346 84.1049 16.4801 84.2925 16.2925C84.4801 16.1049 84.7346 15.9994 85 15.9994C85.2654 15.9994 85.5199 16.1049 85.7075 16.2925L88 18.5863L94.2925 12.2925C94.3854 12.1995 94.4957 12.1258 94.6171 12.0754C94.7385 12.0251 94.8686 11.9992 95 11.9992C95.1314 11.9992 95.2615 12.0251 95.3829 12.0754C95.5043 12.1258 95.6146 12.1995 95.7075 12.2925ZM103 16C103 18.5712 102.238 21.0846 100.809 23.2224C99.3807 25.3603 97.3503 27.0265 94.9749 28.0104C92.5995 28.9944 89.9856 29.2518 87.4638 28.7502C84.9421 28.2486 82.6257 27.0105 80.8076 25.1924C78.9895 23.3743 77.7514 21.0579 77.2498 18.5362C76.7482 16.0144 77.0056 13.4006 77.9896 11.0251C78.9735 8.64968 80.6398 6.61935 82.7776 5.1909C84.9154 3.76244 87.4288 3 90 3C93.4467 3.00364 96.7512 4.37445 99.1884 6.81163C101.626 9.24882 102.996 12.5533 103 16ZM101 16C101 13.8244 100.355 11.6977 99.1462 9.88873C97.9375 8.07979 96.2195 6.66989 94.2095 5.83733C92.1995 5.00476 89.9878 4.78692 87.854 5.21136C85.7202 5.6358 83.7602 6.68345 82.2218 8.22183C80.6835 9.7602 79.6358 11.7202 79.2114 13.854C78.7869 15.9878 79.0048 18.1995 79.8373 20.2095C80.6699 22.2195 82.0798 23.9375 83.8887 25.1462C85.6977 26.3549 87.8244 27 90 27C92.9164 26.9967 95.7123 25.8367 97.7745 23.7745C99.8367 21.7123 100.997 18.9164 101 16Z" fill="#878787"/>
<path d="M1.552 56V44.8H5.064C6.09333 44.8 6.93067 45.04 7.576 45.52C8.22133 45.9947 8.544 46.6933 8.544 47.616C8.544 47.984 8.45067 48.336 8.264 48.672C8.07733 49.008 7.84267 49.3013 7.56 49.552C7.27733 49.8027 6.98933 49.976 6.696 50.072C7.31467 50.248 7.83733 50.584 8.264 51.08C8.696 51.5707 8.912 52.192 8.912 52.944C8.912 53.5253 8.76533 54.048 8.472 54.512C8.17867 54.9707 7.76 55.3333 7.216 55.6C6.67733 55.8667 6.03733 56 5.296 56H1.552ZM2.768 54.952H5.04C5.936 54.952 6.6 54.7813 7.032 54.44C7.464 54.0987 7.68 53.5733 7.68 52.864C7.68 52.1653 7.456 51.6373 7.008 51.28C6.56533 50.9173 5.87467 50.736 4.936 50.736H2.768V54.952ZM2.768 49.712H4.84C5.34667 49.712 5.78667 49.632 6.16 49.472C6.53333 49.312 6.824 49.0827 7.032 48.784C7.24 48.48 7.344 48.1173 7.344 47.696C7.344 47.0987 7.12533 46.6427 6.688 46.328C6.25067 46.008 5.62933 45.848 4.824 45.848H2.768V49.712ZM14.6746 56.24C13.864 56.24 13.144 56.0613 12.5146 55.704C11.8853 55.3467 11.392 54.8587 11.0346 54.24C10.6773 53.616 10.4986 52.9093 10.4986 52.12C10.4986 51.5173 10.6026 50.968 10.8106 50.472C11.024 49.9707 11.3253 49.536 11.7146 49.168C12.104 48.7947 12.56 48.5067 13.0826 48.304C13.6106 48.1013 14.184 48 14.8026 48C15.288 48 15.7333 48.0613 16.1386 48.184C16.5493 48.3067 16.9306 48.5013 17.2826 48.768L16.6426 49.704C16.408 49.5067 16.128 49.3573 15.8026 49.256C15.4826 49.1493 15.1386 49.096 14.7706 49.096C14.152 49.096 13.616 49.216 13.1626 49.456C12.7093 49.6907 12.3573 50.0347 12.1066 50.488C11.856 50.936 11.7306 51.4747 11.7306 52.104C11.7306 53.0533 12.0026 53.7973 12.5466 54.336C13.0906 54.8747 13.8293 55.144 14.7626 55.144C15.1733 55.144 15.5573 55.0693 15.9146 54.92C16.272 54.7707 16.5546 54.5867 16.7626 54.368L17.4506 55.272C17.0506 55.5707 16.616 55.808 16.1466 55.984C15.6773 56.1547 15.1866 56.24 14.6746 56.24ZM22.5256 56.24C21.7096 56.24 20.9896 56.0693 20.3656 55.728C19.7416 55.3867 19.2536 54.9093 18.9016 54.296C18.5496 53.6773 18.3736 52.96 18.3736 52.144C18.3736 51.552 18.4723 51.0027 18.6696 50.496C18.8723 49.9893 19.155 49.5493 19.5176 49.176C19.8856 48.8027 20.3123 48.5147 20.7976 48.312C21.2883 48.104 21.8216 48 22.3976 48C23.011 48 23.5576 48.1093 24.0376 48.328C24.5176 48.5467 24.9176 48.8507 25.2376 49.24C25.563 49.6293 25.795 50.088 25.9336 50.616C26.0776 51.1387 26.115 51.704 26.0456 52.312H19.5976C19.571 52.888 19.6776 53.392 19.9176 53.824C20.1576 54.2507 20.5096 54.584 20.9736 54.824C21.4376 55.064 21.9896 55.184 22.6296 55.184C23.051 55.184 23.467 55.112 23.8776 54.968C24.2936 54.824 24.6536 54.6187 24.9576 54.352L25.5336 55.272C25.2723 55.4853 24.971 55.6667 24.6296 55.816C24.2936 55.96 23.9443 56.0667 23.5816 56.136C23.2243 56.2053 22.8723 56.24 22.5256 56.24ZM19.6536 51.328H24.8296C24.803 50.608 24.5816 50.0453 24.1656 49.64C23.755 49.2347 23.1603 49.032 22.3816 49.032C21.6296 49.032 21.0056 49.2347 20.5096 49.64C20.019 50.0453 19.7336 50.608 19.6536 51.328ZM34.5896 56.168C34.163 56.168 33.7523 56.136 33.3576 56.072C32.9683 56.0133 32.6003 55.92 32.2536 55.792C31.9123 55.6587 31.6003 55.48 31.3176 55.256L31.9256 54.368C32.283 54.656 32.6936 54.8613 33.1576 54.984C33.6216 55.1013 34.0883 55.16 34.5576 55.16C35.2883 55.16 35.867 55.048 36.2936 54.824C36.7256 54.6 36.9416 54.2267 36.9416 53.704C36.9416 53.2507 36.7096 52.92 36.2456 52.712C35.7816 52.504 35.115 52.4 34.2456 52.4H32.8136V51.4H34.2216C34.9736 51.4 35.5656 51.3093 35.9976 51.128C36.435 50.9413 36.6536 50.6267 36.6536 50.184C36.6536 49.9227 36.5683 49.7067 36.3976 49.536C36.227 49.36 35.987 49.2267 35.6776 49.136C35.3683 49.0453 35.0083 49 34.5976 49C34.1336 49 33.6856 49.0693 33.2536 49.208C32.827 49.3413 32.451 49.5467 32.1256 49.824L31.6216 48.984C31.979 48.6747 32.4323 48.4293 32.9816 48.248C33.531 48.0667 34.0963 47.976 34.6776 47.976C35.307 47.976 35.8536 48.0587 36.3176 48.224C36.787 48.3893 37.1496 48.6267 37.4056 48.936C37.6616 49.24 37.7896 49.6107 37.7896 50.048C37.7896 50.4747 37.651 50.8347 37.3736 51.128C37.0963 51.4213 36.6963 51.6347 36.1736 51.768C36.7976 51.8907 37.2723 52.1227 37.5976 52.464C37.923 52.8053 38.0856 53.2267 38.0856 53.728C38.0856 54.2507 37.939 54.6933 37.6456 55.056C37.3576 55.4187 36.9496 55.696 36.4216 55.888C35.899 56.0747 35.2883 56.168 34.5896 56.168ZM43.4994 56.24C42.7047 56.24 42.0034 56.056 41.3954 55.688C40.7927 55.32 40.3207 54.824 39.9794 54.2C39.638 53.576 39.4674 52.8827 39.4674 52.12C39.4674 51.5493 39.5634 51.016 39.7554 50.52C39.9527 50.0187 40.23 49.5787 40.5874 49.2C40.9447 48.8213 41.3714 48.528 41.8674 48.32C42.3634 48.1067 42.9074 48 43.4994 48C44.2994 48 44.958 48.168 45.4754 48.504C45.9927 48.8347 46.406 49.2507 46.7154 49.752L46.5394 50.008V48.24H47.6594V56H46.5394V54.232L46.7154 54.488C46.406 54.9893 45.9927 55.408 45.4754 55.744C44.958 56.0747 44.2994 56.24 43.4994 56.24ZM43.5874 55.144C44.1474 55.144 44.646 55.0213 45.0834 54.776C45.5207 54.5253 45.862 54.176 46.1074 53.728C46.358 53.2747 46.4834 52.7387 46.4834 52.12C46.4834 51.5013 46.358 50.9653 46.1074 50.512C45.862 50.0587 45.5207 49.7093 45.0834 49.464C44.646 49.2187 44.1474 49.096 43.5874 49.096C43.022 49.096 42.5207 49.2187 42.0834 49.464C41.6514 49.7093 41.31 50.0587 41.0594 50.512C40.814 50.9653 40.6914 51.5013 40.6914 52.12C40.6914 52.7387 40.814 53.2747 41.0594 53.728C41.31 54.176 41.6514 54.5253 42.0834 54.776C42.5207 55.0213 43.022 55.144 43.5874 55.144ZM56.0724 56V49.28H52.3044V50.656C52.3044 51.4347 52.2697 52.1173 52.2004 52.704C52.131 53.2853 52.003 53.7813 51.8164 54.192C51.6297 54.6027 51.3657 54.9387 51.0244 55.2C50.683 55.456 50.243 55.6453 49.7044 55.768L49.3204 55.008C49.843 54.8747 50.235 54.6427 50.4964 54.312C50.763 53.976 50.939 53.512 51.0244 52.92C51.115 52.328 51.1604 51.5733 51.1604 50.656V48.24H57.2564V56H56.0724ZM49.3204 58.4V55.008L50.2244 55.12L50.4004 54.96H58.8324V58.4H57.7444V56H50.4084V58.4H49.3204ZM63.7181 56.24C62.9235 56.24 62.2221 56.056 61.6141 55.688C61.0115 55.32 60.5395 54.824 60.1981 54.2C59.8568 53.576 59.6861 52.8827 59.6861 52.12C59.6861 51.5493 59.7821 51.016 59.9741 50.52C60.1715 50.0187 60.4488 49.5787 60.8061 49.2C61.1635 48.8213 61.5901 48.528 62.0861 48.32C62.5821 48.1067 63.1261 48 63.7181 48C64.5181 48 65.1768 48.168 65.6941 48.504C66.2115 48.8347 66.6248 49.2507 66.9341 49.752L66.7581 50.008V48.24H67.8781V56H66.7581V54.232L66.9341 54.488C66.6248 54.9893 66.2115 55.408 65.6941 55.744C65.1768 56.0747 64.5181 56.24 63.7181 56.24ZM63.8061 55.144C64.3661 55.144 64.8648 55.0213 65.3021 54.776C65.7395 54.5253 66.0808 54.176 66.3261 53.728C66.5768 53.2747 66.7021 52.7387 66.7021 52.12C66.7021 51.5013 66.5768 50.9653 66.3261 50.512C66.0808 50.0587 65.7395 49.7093 65.3021 49.464C64.8648 49.2187 64.3661 49.096 63.8061 49.096C63.2408 49.096 62.7395 49.2187 62.3021 49.464C61.8701 49.7093 61.5288 50.0587 61.2781 50.512C61.0328 50.9653 60.9101 51.5013 60.9101 52.12C60.9101 52.7387 61.0328 53.2747 61.2781 53.728C61.5288 54.176 61.8701 54.5253 62.3021 54.776C62.7395 55.0213 63.2408 55.144 63.8061 55.144ZM75.1791 56V52.736C74.7898 52.8373 74.4191 52.9147 74.0671 52.968C73.7151 53.016 73.3391 53.04 72.9391 53.04C72.2138 53.04 71.6191 52.9333 71.1551 52.72C70.6911 52.5013 70.3471 52.184 70.1231 51.768C69.9045 51.3467 69.7951 50.8293 69.7951 50.216V48.24H70.9791V50.04C70.9791 50.6693 71.1365 51.1467 71.4511 51.472C71.7711 51.7973 72.3125 51.96 73.0751 51.96C73.5125 51.96 73.8965 51.9387 74.2271 51.896C74.5631 51.8533 74.8805 51.8 75.1791 51.736V48.24H76.3631V56H75.1791ZM78.9995 56V48.24H80.1675V54.16L84.9915 48.24H85.9835V56H84.8235V50.016L79.9515 56H78.9995ZM92.687 56V48.24H96.127C96.975 48.24 97.6657 48.4107 98.199 48.752C98.7323 49.088 98.999 49.5893 98.999 50.256C98.999 50.5333 98.935 50.7893 98.807 51.024C98.6843 51.2587 98.5057 51.4613 98.271 51.632C98.0363 51.8027 97.7537 51.9307 97.423 52.016L97.399 51.76C98.0337 51.8773 98.5137 52.1147 98.839 52.472C99.1643 52.824 99.327 53.256 99.327 53.768C99.327 54.2267 99.2043 54.624 98.959 54.96C98.719 55.2907 98.3723 55.5467 97.919 55.728C97.471 55.9093 96.9403 56 96.327 56H92.687ZM93.855 55.008H96.159C96.7937 55.008 97.2843 54.9067 97.631 54.704C97.9777 54.496 98.151 54.1813 98.151 53.76C98.151 53.3387 97.9777 53.0267 97.631 52.824C97.2843 52.6213 96.7937 52.52 96.159 52.52H93.639V51.544H95.983C96.575 51.544 97.0337 51.456 97.359 51.28C97.6843 51.0987 97.847 50.8027 97.847 50.392C97.847 49.976 97.6843 49.6773 97.359 49.496C97.039 49.3147 96.5803 49.224 95.983 49.224H93.855V55.008ZM101.515 56V48.24H102.699V55H104.419C105.107 55 105.619 54.8747 105.955 54.624C106.296 54.3733 106.467 53.992 106.467 53.48C106.467 52.968 106.307 52.5813 105.987 52.32C105.667 52.0587 105.19 51.928 104.555 51.928H102.483V50.928H104.635C105.59 50.928 106.342 51.1493 106.891 51.592C107.44 52.0347 107.715 52.664 107.715 53.48C107.715 54.008 107.579 54.4613 107.307 54.84C107.04 55.2133 106.664 55.5013 106.179 55.704C105.694 55.9013 105.131 56 104.491 56H101.515ZM109.115 56V48.24H110.299V56H109.115ZM112.921 56V48.24H119.809V56H118.625V49.28H114.105V56H112.921ZM125.861 56.24C125.072 56.24 124.365 56.0533 123.741 55.68C123.117 55.3067 122.626 54.808 122.269 54.184C121.912 53.5547 121.733 52.8667 121.733 52.12C121.733 51.56 121.834 51.032 122.037 50.536C122.245 50.04 122.536 49.6027 122.909 49.224C123.282 48.84 123.72 48.5413 124.221 48.328C124.722 48.1093 125.269 48 125.861 48C126.656 48 127.362 48.1867 127.981 48.56C128.605 48.9333 129.096 49.4347 129.453 50.064C129.81 50.688 129.989 51.3733 129.989 52.12C129.989 52.6747 129.885 53.2027 129.677 53.704C129.474 54.2 129.189 54.64 128.821 55.024C128.453 55.4027 128.016 55.7013 127.509 55.92C127.008 56.1333 126.458 56.24 125.861 56.24ZM125.861 55.144C126.426 55.144 126.928 55.0213 127.365 54.776C127.802 54.5253 128.144 54.176 128.389 53.728C128.64 53.2747 128.765 52.7387 128.765 52.12C128.765 51.5013 128.64 50.9653 128.389 50.512C128.144 50.0587 127.802 49.7093 127.365 49.464C126.928 49.2187 126.426 49.096 125.861 49.096C125.296 49.096 124.794 49.2187 124.357 49.464C123.92 49.7093 123.576 50.0587 123.325 50.512C123.08 50.9653 122.957 51.5013 122.957 52.12C122.957 52.7387 123.082 53.2747 123.333 53.728C123.584 54.176 123.925 54.5253 124.357 54.776C124.794 55.0213 125.296 55.144 125.861 55.144ZM131.426 56.096L130.97 54.992C131.514 54.8533 131.911 54.6267 132.162 54.312C132.418 53.992 132.58 53.5387 132.65 52.952C132.719 52.3653 132.754 51.6 132.754 50.656V48.24H138.69V56H137.506V49.28H133.898V50.656C133.898 51.5147 133.863 52.2533 133.794 52.872C133.73 53.4907 133.61 54.0133 133.434 54.44C133.258 54.8667 133.007 55.2133 132.682 55.48C132.362 55.7413 131.943 55.9467 131.426 56.096ZM141.312 56V48.24H142.496V51.368H147.032V48.24H148.216V56H147.032V52.408H142.496V56H141.312ZM154.291 56.24C153.475 56.24 152.755 56.0693 152.131 55.728C151.507 55.3867 151.019 54.9093 150.667 54.296C150.315 53.6773 150.139 52.96 150.139 52.144C150.139 51.552 150.238 51.0027 150.435 50.496C150.638 49.9893 150.921 49.5493 151.283 49.176C151.651 48.8027 152.078 48.5147 152.563 48.312C153.054 48.104 153.587 48 154.163 48C154.777 48 155.323 48.1093 155.803 48.328C156.283 48.5467 156.683 48.8507 157.003 49.24C157.329 49.6293 157.561 50.088 157.699 50.616C157.843 51.1387 157.881 51.704 157.811 52.312H151.363C151.337 52.888 151.443 53.392 151.683 53.824C151.923 54.2507 152.275 54.584 152.739 54.824C153.203 55.064 153.755 55.184 154.395 55.184C154.817 55.184 155.233 55.112 155.643 54.968C156.059 54.824 156.419 54.6187 156.723 54.352L157.299 55.272C157.038 55.4853 156.737 55.6667 156.395 55.816C156.059 55.96 155.71 56.0667 155.347 56.136C154.99 56.2053 154.638 56.24 154.291 56.24ZM151.419 51.328H156.595C156.569 50.608 156.347 50.0453 155.931 49.64C155.521 49.2347 154.926 49.032 154.147 49.032C153.395 49.032 152.771 49.2347 152.275 49.64C151.785 50.0453 151.499 50.608 151.419 51.328ZM159.765 56V48.24H160.949V51.368H165.485V48.24H166.669V56H165.485V52.408H160.949V56H159.765ZM169.296 56V48.24H170.48V55H172.2C172.888 55 173.4 54.8747 173.736 54.624C174.078 54.3733 174.248 53.992 174.248 53.48C174.248 52.968 174.088 52.5813 173.768 52.32C173.448 52.0587 172.971 51.928 172.336 51.928H170.264V50.928H172.416C173.371 50.928 174.123 51.1493 174.672 51.592C175.222 52.0347 175.496 52.664 175.496 53.48C175.496 54.008 175.36 54.4613 175.088 54.84C174.822 55.2133 174.446 55.5013 173.96 55.704C173.475 55.9013 172.912 56 172.272 56H169.296ZM176.896 56V48.24H178.08V56H176.896Z" fill="#878787"/>
</svg>
