<svg width="28" height="28" viewBox="0 0 28 28" fill="none" xmlns="http://www.w3.org/2000/svg">
<path d="M23.872 5.923H19.3848V5.02556C19.3848 4.31152 19.1011 3.62672 18.5962 3.12181C18.0913 2.61691 17.4065 2.33325 16.6925 2.33325H11.3079C10.5938 2.33325 9.90904 2.61691 9.40413 3.12181C8.89922 3.62672 8.61557 4.31152 8.61557 5.02556V5.923H4.12839C3.89038 5.923 3.66211 6.01755 3.49381 6.18585C3.32551 6.35415 3.23096 6.58242 3.23096 6.82043C3.23096 7.05845 3.32551 7.28671 3.49381 7.45501C3.66211 7.62332 3.89038 7.71787 4.12839 7.71787H5.02583V23.8717C5.02583 24.3477 5.21493 24.8043 5.55153 25.1409C5.88814 25.4775 6.34467 25.6666 6.8207 25.6666H21.1797C21.6557 25.6666 22.1122 25.4775 22.4488 25.1409C22.7854 24.8043 22.9745 24.3477 22.9745 23.8717V7.71787H23.872C24.11 7.71787 24.3383 7.62332 24.5066 7.45501C24.6749 7.28671 24.7694 7.05845 24.7694 6.82043C24.7694 6.58242 24.6749 6.35415 24.5066 6.18585C24.3383 6.01755 24.11 5.923 23.872 5.923ZM12.2053 19.3845C12.2053 19.6225 12.1108 19.8508 11.9425 20.0191C11.7742 20.1874 11.5459 20.282 11.3079 20.282C11.0699 20.282 10.8416 20.1874 10.6733 20.0191C10.505 19.8508 10.4104 19.6225 10.4104 19.3845V12.205C10.4104 11.967 10.505 11.7388 10.6733 11.5705C10.8416 11.4022 11.0699 11.3076 11.3079 11.3076C11.5459 11.3076 11.7742 11.4022 11.9425 11.5705C12.1108 11.7388 12.2053 11.967 12.2053 12.205V19.3845ZM17.5899 19.3845C17.5899 19.6225 17.4954 19.8508 17.3271 20.0191C17.1588 20.1874 16.9305 20.282 16.6925 20.282C16.4545 20.282 16.2262 20.1874 16.0579 20.0191C15.8896 19.8508 15.7951 19.6225 15.7951 19.3845V12.205C15.7951 11.967 15.8896 11.7388 16.0579 11.5705C16.2262 11.4022 16.4545 11.3076 16.6925 11.3076C16.9305 11.3076 17.1588 11.4022 17.3271 11.5705C17.4954 11.7388 17.5899 11.967 17.5899 12.205V19.3845ZM17.5899 5.923H10.4104V5.02556C10.4104 4.78754 10.505 4.55928 10.6733 4.39098C10.8416 4.22267 11.0699 4.12812 11.3079 4.12812H16.6925C16.9305 4.12812 17.1588 4.22267 17.3271 4.39098C17.4954 4.55928 17.5899 4.78754 17.5899 5.02556V5.923Z" fill="white"/>
</svg>
