<svg width="20" height="20" viewBox="0 0 20 20" fill="none" xmlns="http://www.w3.org/2000/svg">
<path d="M19.7498 10.812C19.5904 12.6645 18.9053 14.4329 17.7751 15.9092C16.6448 17.3856 15.1164 18.5084 13.3697 19.1456C11.623 19.7828 9.73059 19.9079 7.9152 19.5061C6.09981 19.1043 4.43692 18.1924 3.12219 16.8777C1.80745 15.563 0.895561 13.9001 0.493795 12.0847C0.0920285 10.2693 0.217103 8.37692 0.854303 6.6302C1.4915 4.88348 2.61432 3.35508 4.09066 2.22482C5.56699 1.09455 7.33542 0.40945 9.1879 0.250107C9.28639 0.241981 9.38552 0.253334 9.47962 0.283518C9.57372 0.313702 9.66096 0.362126 9.73635 0.426024C9.81174 0.489923 9.87381 0.568044 9.91901 0.655929C9.9642 0.743814 9.99165 0.83974 9.99977 0.938232C10.0079 1.03672 9.99655 1.13585 9.96636 1.22995C9.93618 1.32406 9.88775 1.41129 9.82386 1.48668C9.75996 1.56207 9.68184 1.62414 9.59395 1.66934C9.50607 1.71454 9.41014 1.74198 9.31165 1.75011C7.74376 1.88482 6.24697 2.46455 4.99738 3.42107C3.74779 4.3776 2.79739 5.67113 2.25802 7.14947C1.71864 8.62782 1.61272 10.2295 1.95273 11.766C2.29273 13.3024 3.06451 14.7099 4.17726 15.8226C5.29001 16.9354 6.69743 17.7071 8.23393 18.0472C9.77042 18.3872 11.3721 18.2812 12.8504 17.7419C14.3287 17.2025 15.6223 16.2521 16.5788 15.0025C17.5353 13.7529 18.1151 12.2561 18.2498 10.6882C18.2662 10.4893 18.3609 10.3051 18.5132 10.176C18.6655 10.047 18.8627 9.9837 19.0616 10.0001C19.2606 10.0165 19.4448 10.1113 19.5739 10.2635C19.7029 10.4158 19.7662 10.6131 19.7498 10.812ZM9.24977 4.75011V10.0001C9.24977 10.199 9.32879 10.3898 9.46944 10.5304C9.6101 10.6711 9.80086 10.7501 9.99977 10.7501H15.2498C15.4487 10.7501 15.6395 10.6711 15.7801 10.5304C15.9208 10.3898 15.9998 10.199 15.9998 10.0001C15.9998 9.80119 15.9208 9.61043 15.7801 9.46978C15.6395 9.32912 15.4487 9.25011 15.2498 9.25011H10.7498V4.75011C10.7498 4.55119 10.6708 4.36043 10.5301 4.21978C10.3895 4.07912 10.1987 4.00011 9.99977 4.00011C9.80086 4.00011 9.6101 4.07912 9.46944 4.21978C9.32879 4.36043 9.24977 4.55119 9.24977 4.75011ZM12.9998 2.50011C13.2223 2.50011 13.4398 2.43413 13.6248 2.31051C13.8098 2.18689 13.954 2.01119 14.0391 1.80563C14.1243 1.60006 14.1466 1.37386 14.1032 1.15563C14.0597 0.937401 13.9526 0.736946 13.7953 0.579612C13.6379 0.422277 13.4375 0.315132 13.2192 0.271723C13.001 0.228315 12.7748 0.250594 12.5693 0.335742C12.3637 0.420891 12.188 0.565085 12.0644 0.75009C11.9408 0.935095 11.8748 1.1526 11.8748 1.37511C11.8748 1.67348 11.9933 1.95962 12.2043 2.1706C12.4153 2.38158 12.7014 2.50011 12.9998 2.50011ZM16.3748 4.75011C16.5973 4.75011 16.8148 4.68413 16.9998 4.56051C17.1848 4.43689 17.329 4.26119 17.4141 4.05563C17.4993 3.85006 17.5216 3.62386 17.4782 3.40563C17.4347 3.1874 17.3276 2.98695 17.1703 2.82961C17.0129 2.67228 16.8125 2.56513 16.5942 2.52172C16.376 2.47831 16.1498 2.50059 15.9443 2.58574C15.7387 2.67089 15.563 2.81508 15.4394 3.00009C15.3158 3.1851 15.2498 3.4026 15.2498 3.62511C15.2498 3.92348 15.3683 4.20962 15.5793 4.4206C15.7903 4.63158 16.0764 4.75011 16.3748 4.75011ZM18.6248 8.12511C18.8473 8.12511 19.0648 8.05913 19.2498 7.93551C19.4348 7.81189 19.579 7.63619 19.6641 7.43062C19.7493 7.22506 19.7716 6.99886 19.7282 6.78063C19.6847 6.5624 19.5776 6.36195 19.4203 6.20461C19.2629 6.04728 19.0625 5.94013 18.8442 5.89672C18.626 5.85331 18.3998 5.87559 18.1943 5.96074C17.9887 6.04589 17.813 6.19008 17.6894 6.37509C17.5658 6.5601 17.4998 6.7776 17.4998 7.00011C17.4998 7.29847 17.6183 7.58462 17.8293 7.7956C18.0403 8.00658 18.3264 8.12511 18.6248 8.12511Z" fill="black"/>
</svg>
